PathFileType	4	(X/Y/Z)	C:/Users/beibeiliu/ov580/test_trc/User3\sequence.10_training_dense_right.trc
DataRate	CameraRate	NumFrames	NumMarkers	Units	OrigDataRate	OrigDataStartFrame	OrigNumFrames
120	120	8	19	mm	120	52	155
Frame#	Time	ThumbCMC			ThumbMCP			ThumbIP			ThumbTip			IndexMCP			IndexPIP			IndexTip			MiddleMCP			MiddlePIP			MiddleTip			RingMCP			RingPIP			RingTip			PinkyMCP			PinkyPIP			PinkyTip			BackHand1			BackHand2			BackHand3	
		X0	Y0	Z0	X1	Y1	Z1	X2	Y2	Z2	X3	Y3	Z3	X4	Y4	Z4	X5	Y5	Z5	X6	Y6	Z6	X7	Y7	Z7	X8	Y8	Z8	X9	Y9	Z9	X10	Y10	Z10	X11	Y11	Z11	X12	Y12	Z12	X13	Y13	Z13	X14	Y14	Z14	X15	Y15	Z15	X16	Y16	Z16	X17	Y17	Z17	X18	Y18	Z18	
51	0.425	201.793	37.8539	-6.77704	177.301	53.5801	-34.2204	152.274	54.7327	-48.1824	128.36	42.1419	-54.0477	192.75	6.03265	-76.4933	188.689	11.8593	-101.67	185.888	18.1434	-128.301	170.114	-9.55287	-75.612	159.511	-4.77852	-101.992	143.661	5.24261	-132.158	142.853	0.100594	-59.3832	131.918	32.0697	-57.2408	143.148	37.6192	-25.3789	132.981	-3.8242	-46.877	120.736	18.907	-45.4916	136.015	34.8286	-20.1278	174.718	-24.0964	-19.5184	179.131	-24.8186	13.3497	205.794	-5.85195	-9.92229	
52	0.433333	203.148	37.1299	-9.74384	177.919	54.3235	-35.3671	151.826	48.3683	-50.9171	130.072	37.7937	-55.8202	196.699	5.26304	-81.1275	197.347	10.9819	-106.38	189.987	10.7392	-132.013	173.416	-12.9529	-79.5882	166.407	-6.97424	-103.249	150.446	-5.98988	-131.265	148.889	-0.127778	-63.0097	134.183	25.4196	-57.7118	146.921	33.1412	-25.842	138.983	-8.70968	-46.9633	127.257	16.712	-47.1524	138.959	29.8415	-22.4886	179.256	-27.04	-17.981	188.127	-21.6746	14.4581	207.2	-4.98271	-10.1099	
53	0.441667	199.944	42.541	-9.87634	173.734	55.7899	-37.4372	149.823	46.79	-53.2999	129.429	24.3391	-59.3027	204.444	10.1294	-78.0966	202.357	12.2916	-102.642	198.679	12.9936	-127.905	186.729	-10.0213	-79.5432	175.196	-11.4355	-107.708	163.708	-11.852	-132.41	153.951	-5.6148	-64.5135	135.666	16.4095	-59.2947	150.814	30.1684	-29.6334	145.577	-15.5264	-47.2334	128.944	6.72347	-45.8248	141.112	24.2238	-24.6773	191.183	-24.3049	-16.5032	196.606	-18.7333	12.6177	216.295	3.63731	-11.4484	
54	0.45	190.526	52.2078	-9.2446	165.428	56.4462	-36.0118	146.3	39.8616	-58.4836	135.665	18.6857	-61.7763	211.497	26.8819	-81.9228	211.454	31.7472	-107.384	210.653	31.3987	-128.003	201.727	1.73109	-82.3901	193.988	-0.690642	-110.277	186.653	-0.797512	-135.302	169.9	-1.77503	-67.777	143.373	8.46367	-62.4896	148.966	24.2285	-33.6144	160.468	-14.2486	-53.0685	141.022	3.82703	-47.6235	148.542	18.9621	-20.094	206.72	-7.98528	-21.0752	207.263	-5.18384	12.7003	220.474	23.6653	-13.0564	
55	0.458333	183.964	63.0672	-11.4893	162.666	58.3138	-42.0943	149.886	40.1337	-61.3853	151.471	11.5758	-65.0683	218.506	50.8923	-78.7601	219.691	51.7409	-103.7	222.158	53.1651	-125.131	218.823	20.8164	-80.0361	215.353	17.3842	-106.938	210.558	10.7746	-138.316	190.957	3.26281	-66.5999	159.219	12.8284	-67.0037	157.999	21.59	-34.6341	185.107	-8.12494	-53.3689	156.771	0.485081	-50.0467	157.725	19.219	-27.5167	222.402	11.2476	-19.2967	216.536	16.0432	14.2497	220.578	49.637	-10.5672	
56	0.466667	181.406	71.9309	-14.3367	164.091	62.0426	-47.1087	164.135	40.003	-67.9491	170.805	14.9355	-71.6128	227.194	67.9458	-75.9814	228.856	73.9238	-97.6968	235.866	75.9844	-123.39	235.647	41.6388	-75.4371	237.023	35.8707	-100.703	237.624	31.5683	-132.642	212.444	19.941	-66.8845	181.494	10.912	-70.589	172.845	22.3197	-40.9651	208.004	5.17276	-54.768	179.2	2.77175	-54.6851	173.501	17.7641	-28.4969	231.876	31.1504	-13.1498	223.696	35.1791	16.213	220.103	64.6773	-7.42421	
57	0.475	178.942	76.3057	-15.8835	171.602	64.5576	-53.7516	179.212	42.5629	-77.2778	191.471	23.7451	-75.3113	230.659	89.646	-69.6197	237.887	94.6337	-94.1774	244.813	97.8685	-119.079	249.308	62.6431	-69.8963	256.673	62.4779	-98.2695	262.266	57.2533	-125.778	232.727	33.8708	-64.7498	206.357	21.2232	-75.5836	188.473	32.2177	-47.5592	229.275	16.1424	-55.7403	203.181	14.6349	-60.3018	188.547	26.6693	-32.491	238.501	53.4266	-9.98299	228.208	49.4062	16.0858	218.665	78.2116	-4.36861	
58	0.483333	176.574	73.4643	-20.1936	171.652	61.9016	-54.9234	185.205	47.7122	-79.9466	209.789	31.2671	-79.0655	223.107	104.334	-67.5065	225.52	117.077	-93.0951	231.316	122.691	-115.239	247.922	87.4994	-64.9806	261.205	89.4306	-94.2164	267.12	92.409	-125.66	240.679	57.8473	-66.569	223.002	33.417	-76.4173	203.178	36.12	-52.0533	244.817	35.8694	-55.109	220.555	23.4793	-62.4043	202.153	28.1256	-37.4666	238.667	66.498	-7.95422	225.6	60.0295	20.5905	209.327	86.971	-2.01632	
